<svg width="16" height="16" viewBox="0 0 16 16" fill="none" xmlns="http://www.w3.org/2000/svg">
<path d="M8.66666 7.43359H4.66666" stroke="#C2773F" stroke-width="1.2" stroke-linecap="round" stroke-linejoin="round"/>
<path d="M1.33334 7.43355V4.35356C1.33334 2.99356 2.43334 1.89355 3.79334 1.89355H7.54C8.9 1.89355 10 2.74022 10 4.10022" stroke="#C2773F" stroke-width="1.2" stroke-linecap="round" stroke-linejoin="round"/>
<path d="M11.6533 8.13293C11.32 8.45293 11.16 8.94626 11.2933 9.45292C11.46 10.0729 12.0733 10.4663 12.7133 10.4663H13.3333V11.4329C13.3333 12.9063 12.14 14.0996 10.6667 14.0996H4C2.52667 14.0996 1.33334 12.9063 1.33334 11.4329V6.76628C1.33334 5.29294 2.52667 4.09961 4 4.09961H10.6667C12.1333 4.09961 13.3333 5.29961 13.3333 6.76628V7.73291H12.6133C12.24 7.73291 11.9 7.8796 11.6533 8.13293Z" stroke="#C2773F" stroke-width="1.2" stroke-linecap="round" stroke-linejoin="round"/>
<path d="M14.6667 8.41341V9.78674C14.6667 10.1601 14.36 10.4668 13.98 10.4668H12.6933C11.9733 10.4668 11.3134 9.94009 11.2534 9.22009C11.2134 8.80009 11.3733 8.40676 11.6533 8.13342C11.9 7.88009 12.24 7.7334 12.6133 7.7334H13.98C14.36 7.7334 14.6667 8.04008 14.6667 8.41341Z" stroke="#C2773F" stroke-width="1.2" stroke-linecap="round" stroke-linejoin="round"/>
</svg>
