<svg width="16" height="16" viewBox="0 0 16 16" fill="none" xmlns="http://www.w3.org/2000/svg">
<path d="M8.66669 7.43359H4.66669" stroke="#766C64" stroke-width="1.2" stroke-linecap="round" stroke-linejoin="round"/>
<path d="M1.33331 7.43355V4.35356C1.33331 2.99356 2.43331 1.89355 3.79331 1.89355H7.53998C8.89998 1.89355 9.99998 2.74022 9.99998 4.10022" stroke="#766C64" stroke-width="1.2" stroke-linecap="round" stroke-linejoin="round"/>
<path d="M11.6533 8.13293C11.32 8.45293 11.16 8.94626 11.2933 9.45292C11.46 10.0729 12.0733 10.4663 12.7133 10.4663H13.3333V11.4329C13.3333 12.9063 12.14 14.0996 10.6666 14.0996H3.99998C2.52665 14.0996 1.33331 12.9063 1.33331 11.4329V6.76628C1.33331 5.29294 2.52665 4.09961 3.99998 4.09961H10.6666C12.1333 4.09961 13.3333 5.29961 13.3333 6.76628V7.73291H12.6133C12.24 7.73291 11.9 7.8796 11.6533 8.13293Z" stroke="#766C64" stroke-width="1.2" stroke-linecap="round" stroke-linejoin="round"/>
<path d="M14.6667 8.41341V9.78674C14.6667 10.1601 14.36 10.4668 13.98 10.4668H12.6933C11.9733 10.4668 11.3133 9.94009 11.2533 9.22009C11.2133 8.80009 11.3733 8.40676 11.6533 8.13342C11.9 7.88009 12.24 7.7334 12.6133 7.7334H13.98C14.36 7.7334 14.6667 8.04008 14.6667 8.41341Z" stroke="#766C64" stroke-width="1.2" stroke-linecap="round" stroke-linejoin="round"/>
</svg>
