<svg width="15" height="15" viewBox="0 0 15 15" fill="none" xmlns="http://www.w3.org/2000/svg">
<path d="M7.128 14.256C6.144 14.256 5.22 14.07 4.356 13.698C3.504 13.338 2.748 12.834 2.088 12.186C1.44 11.526 0.930001 10.764 0.558001 9.90004C0.186001 9.03604 7.82311e-07 8.11204 7.82311e-07 7.12804C7.82311e-07 6.14404 0.186001 5.22004 0.558001 4.35604C0.930001 3.49204 1.44 2.73604 2.088 2.08804C2.748 1.42804 3.504 0.918042 4.356 0.558042C5.22 0.186042 6.144 4.26769e-05 7.128 4.26769e-05C8.112 4.26769e-05 9.036 0.186042 9.9 0.558042C10.764 0.918042 11.52 1.42804 12.168 2.08804C12.828 2.73604 13.338 3.49204 13.698 4.35604C14.07 5.22004 14.256 6.14404 14.256 7.12804C14.256 8.11204 14.07 9.03604 13.698 9.90004C13.338 10.764 12.828 11.526 12.168 12.186C11.52 12.834 10.764 13.338 9.9 13.698C9.036 14.07 8.112 14.256 7.128 14.256ZM7.128 13.014C7.944 13.014 8.706 12.864 9.414 12.564C10.122 12.252 10.746 11.826 11.286 11.286C11.826 10.746 12.246 10.122 12.546 9.41404C12.858 8.70604 13.014 7.94404 13.014 7.12804C13.014 6.31204 12.858 5.55004 12.546 4.84204C12.246 4.13404 11.826 3.51004 11.286 2.97004C10.746 2.43004 10.122 2.01004 9.414 1.71004C8.706 1.39804 7.944 1.24204 7.128 1.24204C6.312 1.24204 5.55 1.39804 4.842 1.71004C4.134 2.01004 3.51 2.43004 2.97 2.97004C2.43 3.51004 2.004 4.13404 1.692 4.84204C1.392 5.55004 1.242 6.31204 1.242 7.12804C1.242 7.94404 1.392 8.70604 1.692 9.41404C2.004 10.122 2.43 10.746 2.97 11.286C3.51 11.826 4.134 12.252 4.842 12.564C5.55 12.864 6.312 13.014 7.128 13.014ZM7.128 12.15C6.432 12.15 5.778 12.024 5.166 11.772C4.566 11.508 4.032 11.148 3.564 10.692C3.108 10.224 2.748 9.69004 2.484 9.09004C2.232 8.47804 2.106 7.82404 2.106 7.12804C2.106 6.43204 2.232 5.78404 2.484 5.18404C2.748 4.57204 3.108 4.03804 3.564 3.58204C4.032 3.11404 4.566 2.75404 5.166 2.50204C5.778 2.23804 6.432 2.10604 7.128 2.10604C7.824 2.10604 8.478 2.23804 9.09 2.50204C9.702 2.75404 10.236 3.11404 10.692 3.58204C11.16 4.03804 11.52 4.57204 11.772 5.18404C12.036 5.78404 12.168 6.43204 12.168 7.12804C12.168 7.82404 12.036 8.47804 11.772 9.09004C11.52 9.69004 11.16 10.224 10.692 10.692C10.236 11.148 9.702 11.508 9.09 11.772C8.478 12.024 7.824 12.15 7.128 12.15Z" fill="#F27A2B"/>
</svg>
